<svg width="126" height="126" viewBox="0 0 126 126" fill="none" xmlns="http://www.w3.org/2000/svg">
<g clip-path="url(#clip0_4_2396)">
<path fill-rule="evenodd" clip-rule="evenodd" d="M20.7869 15.537L26.5193 -1.66022H36.4804L42.2128 15.537L59.41 21.2694V31.2306L42.2128 36.963L36.4804 54.1602H26.5193L20.7869 36.963L3.58966 31.2306V21.2694L20.7869 15.537ZM31.4999 16.6019L29.9179 21.3477L26.5976 24.6681L21.8518 26.25L26.5976 27.8319L29.9179 31.1523L31.4999 35.898L33.0818 31.1523L36.4022 27.8319L41.1479 26.25L36.4022 24.6681L33.0818 21.3477L31.4999 16.6019ZM89.7168 31.6972C87.3539 31.5041 84.2968 31.5 79.7998 31.5H73.4998V21H80.0166C84.2427 21 87.7306 20.9999 90.5719 21.232C93.5229 21.4731 96.2356 21.9906 98.7836 23.2889C102.735 25.3022 105.948 28.5148 107.961 32.4662C109.259 35.0142 109.777 37.7269 110.018 40.6779C110.25 43.5192 110.25 47.007 110.25 51.2331V69.5141C110.25 73.7401 110.25 77.2279 110.018 80.0692C109.777 83.0202 109.259 85.7329 107.961 88.2809C105.948 92.2323 102.735 95.4449 98.7836 97.4582C96.2356 98.7565 93.5229 99.274 90.5719 99.5151C87.7306 99.7472 84.2428 99.7471 80.0167 99.7471H78.9148L66.9862 113.666L59.0134 113.666L47.0849 99.7471H45.9828C41.7568 99.7471 38.2689 99.7472 35.4277 99.5151C32.4767 99.274 29.764 98.7565 27.216 97.4582C23.2646 95.4449 20.052 92.2323 18.0386 88.2809C16.7404 85.7329 16.2229 83.0202 15.9818 80.0692C15.7497 77.2279 15.7497 73.74 15.7498 69.5139L15.7498 65.6236H26.2498V69.2971C26.2498 73.7941 26.2539 76.8512 26.4469 79.2141C26.635 81.5158 26.9758 82.6929 27.3942 83.514C28.4009 85.4897 30.0072 87.096 31.9829 88.1026C32.804 88.521 33.981 88.8619 36.2827 89.0499C38.6457 89.243 41.7027 89.2471 46.1998 89.2471H51.9148L62.9998 102.182L74.0849 89.2471H79.7998C84.2968 89.2471 87.3539 89.243 89.7168 89.0499C92.0185 88.8619 93.1956 88.521 94.0167 88.1026C95.9924 87.096 97.5987 85.4897 98.6053 83.514C99.0237 82.6929 99.3646 81.5158 99.5526 79.2141C99.7457 76.8512 99.7498 73.7941 99.7498 69.2971V51.45C99.7498 46.953 99.7457 43.8959 99.5526 41.533C99.3646 39.2313 99.0237 38.0542 98.6053 37.2331C97.5987 35.2574 95.9924 33.6511 94.0167 32.6445C93.1956 32.2261 92.0185 31.8852 89.7168 31.6972Z" fill="white"/>
<path fill-rule="evenodd" clip-rule="evenodd" d="M56.5721 56.5722L60.0115 46.2539H65.9882L69.4277 56.5722L79.746 60.0116V65.9883L69.4277 69.4278L65.9882 79.7461H60.0115L56.5721 69.4278L46.2537 65.9883V60.0116L56.5721 56.5722Z" fill="white"/>
</g>
<defs>
<clipPath id="clip0_4_2396">
<rect width="126" height="126" fill="white"/>
</clipPath>
</defs>
</svg>
