<svg width="2166" height="486" viewBox="0 0 2166 486" fill="none" xmlns="http://www.w3.org/2000/svg">
<path d="M356.162 39H327.935L316.103 58.5938L313.521 55.4209H304L321.162 27H356.163L356.162 39Z" fill="url(#paint0_linear_1014_48)"/>
<path d="M553.162 39H524.935L513.103 58.5938L510.521 55.4209H501L518.162 27H553.163L553.162 39Z" fill="url(#paint1_linear_1014_48)"/>
<path d="M409.001 39H437.229L449.061 58.5938L451.642 55.4209H461.163L444.001 27H409L409.001 39Z" fill="url(#paint2_linear_1014_48)"/>
<path d="M212.001 39H240.229L252.061 58.5938L254.642 55.4209H264.163L247.001 27H212L212.001 39Z" fill="url(#paint3_linear_1014_48)"/>
<path d="M853.2 350V137H936C962.4 137 982.6 141.7 996.6 151.1C1010.6 160.3 1017.6 174.9 1017.6 194.9C1017.6 203.7 1015.8 211.4 1012.2 218C1008.6 224.4 1003.3 229.5 996.3 233.3C989.5 237.1 981.2 239.4 971.4 240.2V239.6C989.2 240.8 1002.8 246 1012.2 255.2C1021.8 264.2 1026.6 276.2 1026.6 291.2C1026.6 311 1019.6 325.8 1005.6 335.6C991.8 345.2 972 350 946.2 350H853.2ZM898.8 312.8H944.1C955.1 312.8 963.9 310.6 970.5 306.2C977.3 301.6 980.7 294.8 980.7 285.8C980.7 276.8 977.3 270 970.5 265.4C963.9 260.6 955.1 258.2 944.1 258.2H898.8V312.8ZM898.8 225.2H934.8C946 225.2 954.9 223 961.5 218.6C968.3 214.2 971.7 207.9 971.7 199.7C971.7 190.9 968.4 184.5 961.8 180.5C955.4 176.3 946.4 174.2 934.8 174.2H898.8V225.2ZM1131.99 353.6C1115.59 353.6 1101.29 350.2 1089.09 343.4C1077.09 336.4 1067.69 326.6 1060.89 314C1054.29 301.4 1050.99 286.6 1050.99 269.6C1050.99 252.6 1054.29 237.9 1060.89 225.5C1067.69 212.9 1077.09 203.1 1089.09 196.1C1101.09 189.1 1115.29 185.6 1131.69 185.6C1147.69 185.6 1161.59 189.1 1173.39 196.1C1185.19 203.1 1194.29 213.1 1200.69 226.1C1207.29 239.1 1210.59 254.6 1210.59 272.6V281.6H1097.49C1098.09 294.4 1101.49 303.9 1107.69 310.1C1114.09 316.3 1122.49 319.4 1132.89 319.4C1140.49 319.4 1146.79 317.8 1151.79 314.6C1156.99 311.4 1160.69 306.5 1162.89 299.9L1208.19 302.6C1203.99 318.6 1195.09 331.1 1181.49 340.1C1167.89 349.1 1151.39 353.6 1131.99 353.6ZM1097.49 254H1164.39C1163.79 242.2 1160.49 233.4 1154.49 227.6C1148.69 221.8 1141.09 218.9 1131.69 218.9C1122.29 218.9 1114.49 222 1108.29 228.2C1102.29 234.2 1098.69 242.8 1097.49 254ZM1310.7 353.6C1294.3 353.6 1280 350.2 1267.8 343.4C1255.8 336.4 1246.4 326.6 1239.6 314C1233 301.4 1229.7 286.6 1229.7 269.6C1229.7 252.6 1233 237.9 1239.6 225.5C1246.4 212.9 1255.8 203.1 1267.8 196.1C1279.8 189.1 1294 185.6 1310.4 185.6C1326.4 185.6 1340.3 189.1 1352.1 196.1C1363.9 203.1 1373 213.1 1379.4 226.1C1386 239.1 1389.3 254.6 1389.3 272.6V281.6H1276.2C1276.8 294.4 1280.2 303.9 1286.4 310.1C1292.8 316.3 1301.2 319.4 1311.6 319.4C1319.2 319.4 1325.5 317.8 1330.5 314.6C1335.7 311.4 1339.4 306.5 1341.6 299.9L1386.9 302.6C1382.7 318.6 1373.8 331.1 1360.2 340.1C1346.6 349.1 1330.1 353.6 1310.7 353.6ZM1276.2 254H1343.1C1342.5 242.2 1339.2 233.4 1333.2 227.6C1327.4 221.8 1319.8 218.9 1310.4 218.9C1301 218.9 1293.2 222 1287 228.2C1281 234.2 1277.4 242.8 1276.2 254ZM1618.43 350V137H1701.23C1727.63 137 1747.83 141.7 1761.83 151.1C1775.83 160.3 1782.83 174.9 1782.83 194.9C1782.83 203.7 1781.03 211.4 1777.43 218C1773.83 224.4 1768.53 229.5 1761.53 233.3C1754.73 237.1 1746.43 239.4 1736.63 240.2V239.6C1754.43 240.8 1768.03 246 1777.43 255.2C1787.03 264.2 1791.83 276.2 1791.83 291.2C1791.83 311 1784.83 325.8 1770.83 335.6C1757.03 345.2 1737.23 350 1711.43 350H1618.43ZM1664.03 312.8H1709.33C1720.33 312.8 1729.13 310.6 1735.73 306.2C1742.53 301.6 1745.93 294.8 1745.93 285.8C1745.93 276.8 1742.53 270 1735.73 265.4C1729.13 260.6 1720.33 258.2 1709.33 258.2H1664.03V312.8ZM1664.03 225.2H1700.03C1711.23 225.2 1720.13 223 1726.73 218.6C1733.53 214.2 1736.93 207.9 1736.93 199.7C1736.93 190.9 1733.63 184.5 1727.03 180.5C1720.63 176.3 1711.63 174.2 1700.03 174.2H1664.03V225.2ZM1897.22 353.6C1880.82 353.6 1866.52 350.2 1854.32 343.4C1842.32 336.4 1832.92 326.6 1826.12 314C1819.52 301.4 1816.22 286.6 1816.22 269.6C1816.22 252.6 1819.52 237.9 1826.12 225.5C1832.92 212.9 1842.32 203.1 1854.32 196.1C1866.32 189.1 1880.52 185.6 1896.92 185.6C1912.92 185.6 1926.82 189.1 1938.62 196.1C1950.42 203.1 1959.52 213.1 1965.92 226.1C1972.52 239.1 1975.82 254.6 1975.82 272.6V281.6H1862.72C1863.32 294.4 1866.72 303.9 1872.92 310.1C1879.32 316.3 1887.72 319.4 1898.12 319.4C1905.72 319.4 1912.02 317.8 1917.02 314.6C1922.22 311.4 1925.92 306.5 1928.12 299.9L1973.42 302.6C1969.22 318.6 1960.32 331.1 1946.72 340.1C1933.12 349.1 1916.62 353.6 1897.22 353.6ZM1862.72 254H1929.62C1929.02 242.2 1925.72 233.4 1919.72 227.6C1913.92 221.8 1906.32 218.9 1896.92 218.9C1887.52 218.9 1879.72 222 1873.52 228.2C1867.52 234.2 1863.92 242.8 1862.72 254ZM2075.93 353.6C2059.53 353.6 2045.23 350.2 2033.03 343.4C2021.03 336.4 2011.63 326.6 2004.83 314C1998.23 301.4 1994.93 286.6 1994.93 269.6C1994.93 252.6 1998.23 237.9 2004.83 225.5C2011.63 212.9 2021.03 203.1 2033.03 196.1C2045.03 189.1 2059.23 185.6 2075.63 185.6C2091.63 185.6 2105.53 189.1 2117.33 196.1C2129.13 203.1 2138.23 213.1 2144.63 226.1C2151.23 239.1 2154.53 254.6 2154.53 272.6V281.6H2041.43C2042.03 294.4 2045.43 303.9 2051.63 310.1C2058.03 316.3 2066.43 319.4 2076.83 319.4C2084.43 319.4 2090.73 317.8 2095.73 314.6C2100.93 311.4 2104.63 306.5 2106.83 299.9L2152.13 302.6C2147.93 318.6 2139.03 331.1 2125.43 340.1C2111.83 349.1 2095.33 353.6 2075.93 353.6ZM2041.43 254H2108.33C2107.73 242.2 2104.43 233.4 2098.43 227.6C2092.63 221.8 2085.03 218.9 2075.63 218.9C2066.23 218.9 2058.43 222 2052.23 228.2C2046.23 234.2 2042.63 242.8 2041.43 254Z" fill="#B7B7B7"/>
<path d="M1417.64 350C1417.64 331.8 1420.04 316 1424.84 302.6C1429.84 289.2 1437.84 277.2 1448.84 266.6C1460.04 256 1474.84 245.9 1493.24 236.3C1503.04 231.3 1510.74 226.9 1516.34 223.1C1522.14 219.1 1526.24 215.1 1528.64 211.1C1531.04 207.1 1532.24 202.4 1532.24 197C1532.24 191.8 1531.04 187.3 1528.64 183.5C1526.44 179.5 1523.14 176.4 1518.74 174.2C1514.34 171.8 1508.84 170.6 1502.24 170.6C1491.44 170.6 1482.84 173.8 1476.44 180.2C1470.24 186.4 1466.34 195.5 1464.74 207.5L1417.94 204.8C1419.94 182.2 1428.14 164.5 1442.54 151.7C1457.14 138.7 1476.84 132.2 1501.64 132.2C1518.04 132.2 1531.94 134.9 1543.34 140.3C1554.94 145.7 1563.74 153.2 1569.74 162.8C1575.94 172.4 1579.04 183.6 1579.04 196.4C1579.04 207.6 1577.14 217 1573.34 224.6C1569.74 232.2 1563.84 239.2 1555.64 245.6C1547.44 252 1536.64 258.8 1523.24 266C1506.04 275.2 1493.34 283.7 1485.14 291.5C1476.94 299.1 1472.54 305.8 1471.94 311.6H1579.04V350H1417.64Z" fill="url(#paint4_linear_1014_48)"/>
<defs>
<linearGradient id="paint0_linear_1014_48" x1="304.855" y1="44.0419" x2="304.855" y2="56.4602" gradientUnits="userSpaceOnUse">
<stop stop-color="#12B76A"/>
<stop offset="1" stop-color="#08512F"/>
</linearGradient>
<linearGradient id="paint1_linear_1014_48" x1="501.855" y1="44.0419" x2="501.855" y2="56.4602" gradientUnits="userSpaceOnUse">
<stop stop-color="#12B76A"/>
<stop offset="1" stop-color="#08512F"/>
</linearGradient>
<linearGradient id="paint2_linear_1014_48" x1="460.308" y1="44.0419" x2="460.308" y2="56.4602" gradientUnits="userSpaceOnUse">
<stop stop-color="#12B76A"/>
<stop offset="1" stop-color="#08512F"/>
</linearGradient>
<linearGradient id="paint3_linear_1014_48" x1="263.308" y1="44.0419" x2="263.308" y2="56.4602" gradientUnits="userSpaceOnUse">
<stop stop-color="#12B76A"/>
<stop offset="1" stop-color="#08512F"/>
</linearGradient>
<linearGradient id="paint4_linear_1014_48" x1="831" y1="243" x2="2166" y2="243" gradientUnits="userSpaceOnUse">
<stop offset="0.2" stop-color="#1EAC52"/>
<stop offset="1" stop-color="#08512F"/>
</linearGradient>
</defs>
</svg>
