<svg width="2656" height="486" viewBox="0 0 2656 486" fill="none" xmlns="http://www.w3.org/2000/svg">
<path d="M356.162 39H327.935L316.103 58.5938L313.521 55.4209H304L321.162 27H356.163L356.162 39Z" fill="url(#paint0_linear_1018_26)"/>
<path d="M553.162 39H524.935L513.103 58.5938L510.521 55.4209H501L518.162 27H553.163L553.162 39Z" fill="url(#paint1_linear_1018_26)"/>
<path d="M409.001 39H437.229L449.061 58.5938L451.642 55.4209H461.163L444.001 27H409L409.001 39Z" fill="url(#paint2_linear_1018_26)"/>
<path d="M212.001 39H240.229L252.061 58.5938L254.642 55.4209H264.163L247.001 27H212L212.001 39Z" fill="url(#paint3_linear_1018_26)"/>
<path d="M234.856 95.7235L259.353 125.929H308.434L332.931 95.7235L308.434 65.5187H259.353L234.856 95.7235Z" fill="url(#paint4_linear_1018_26)"/>
<path d="M56.1906 143.355L21.5043 191.508C30.1544 203.32 56.1895 238.875 56.1895 238.875H108.936L266.451 143.411L56.1906 143.355Z" fill="url(#paint5_linear_1018_26)"/>
<path d="M124.538 249.82V280.784L158.766 280.875L310.23 153.958H282.615L124.538 249.82Z" fill="url(#paint6_linear_1018_26)"/>
<path d="M244.955 256.97L323.416 294.721V270.527L287.782 253.035L244.955 232.202V256.97Z" fill="url(#paint7_linear_1018_26)"/>
<path d="M244.955 340.173L323.416 437.366V360.2L244.955 322.448V340.173Z" fill="url(#paint8_linear_1018_26)"/>
<path d="M244.955 303.622L323.416 341.374V313.548L244.955 275.796V303.622Z" fill="url(#paint9_linear_1018_26)"/>
<path d="M334.543 156.285L258.559 219.954L339.99 259.568L340.38 259.344V223.719H340.531L384.913 198.095V180.633L334.911 155.975L334.543 156.285Z" fill="url(#paint10_linear_1018_26)"/>
<path d="M401.877 173.905V207.816H401.868L357.345 233.519V249.551L384.83 233.683L384.878 233.601L384.924 233.627L384.973 233.601L385.02 233.683L427.625 258.28L506.123 219.688L433.106 158.504L401.877 173.905Z" fill="url(#paint11_linear_1018_26)"/>
<path d="M441.583 270.371V294.721L520.044 256.97V232.201L441.583 270.371Z" fill="url(#paint12_linear_1018_26)"/>
<path d="M441.583 313.548V341.373L520.044 303.622V275.796L441.583 313.548Z" fill="url(#paint13_linear_1018_26)"/>
<path d="M441.583 360.2V437.366L520.044 340.173V322.448L441.583 360.2Z" fill="url(#paint14_linear_1018_26)"/>
<path d="M432.069 95.7235L456.566 125.929H505.647L530.144 95.7235L505.647 65.5187H456.566L432.069 95.7235Z" fill="url(#paint15_linear_1018_26)"/>
<path d="M606.234 280.875L640.462 280.784V249.82L482.385 153.958H454.771L606.234 280.875Z" fill="url(#paint16_linear_1018_26)"/>
<path d="M498.549 143.411L649.493 234.948L656.064 238.875H708.811L717.189 227.433L723.989 218.146C724.935 216.854 725.472 216.121 725.776 215.707L725.899 215.539L725.931 215.496L726.031 215.329L726.165 215.161L726.484 214.683L726.62 214.553C726.935 214.123 727.469 213.396 728.344 212.201L728.346 212.197C730.516 209.235 734.846 203.32 743.496 191.508L734.447 178.947C731.471 174.816 729.565 172.169 728.343 170.473L728.344 170.471C727.257 168.963 726.71 168.206 726.436 167.825C726.433 167.821 726.43 167.816 726.427 167.812L726.258 167.623L726.141 167.439L726.069 167.349L725.952 167.154C725.934 167.128 725.914 167.099 725.892 167.068C725.616 166.685 725.068 165.926 723.989 164.427C722.833 162.822 721.062 160.364 718.352 156.602L708.809 143.355L498.549 143.411Z" fill="url(#paint17_linear_1018_26)"/>
<path d="M924 386.203V102.396H1034.2C1069.34 102.396 1096.22 108.658 1114.86 121.183C1133.49 133.441 1142.81 152.895 1142.81 179.543C1142.81 191.269 1140.41 201.528 1135.62 210.322C1130.83 218.85 1123.77 225.645 1114.46 230.709C1105.41 235.772 1094.36 238.836 1081.32 239.902V239.103C1105.01 240.702 1123.11 247.631 1135.62 259.889C1148.4 271.881 1154.79 287.87 1154.79 307.856C1154.79 334.238 1145.47 353.958 1126.84 367.016C1108.47 379.808 1082.12 386.203 1047.78 386.203H924ZM984.691 336.637H1044.98C1059.62 336.637 1071.34 333.705 1080.12 327.843C1089.17 321.714 1093.7 312.653 1093.7 300.661C1093.7 288.669 1089.17 279.609 1080.12 273.48C1071.34 267.084 1059.62 263.886 1044.98 263.886H984.691V336.637ZM984.691 219.916H1032.61C1047.51 219.916 1059.36 216.985 1068.14 211.122C1077.19 205.259 1081.72 196.865 1081.72 185.939C1081.72 174.214 1077.32 165.686 1068.54 160.356C1060.02 154.76 1048.04 151.962 1032.61 151.962H984.691V219.916Z" fill="#585858"/>
<path d="M1295.05 391C1273.22 391 1254.19 386.47 1237.95 377.409C1221.98 368.082 1209.47 355.024 1200.42 338.236C1191.64 321.447 1187.24 301.727 1187.24 279.076C1187.24 256.425 1191.64 236.838 1200.42 220.316C1209.47 203.527 1221.98 190.469 1237.95 181.142C1253.92 171.815 1272.82 167.152 1294.65 167.152C1315.95 167.152 1334.45 171.815 1350.15 181.142C1365.86 190.469 1377.97 203.794 1386.49 221.115C1395.27 238.437 1399.66 259.089 1399.66 283.073V295.065H1249.13C1249.93 312.12 1254.46 324.778 1262.71 333.039C1271.23 341.3 1282.41 345.431 1296.25 345.431C1306.36 345.431 1314.75 343.299 1321.4 339.035C1328.32 334.771 1333.25 328.243 1336.18 319.448L1396.47 323.046C1390.88 344.365 1379.03 361.02 1360.93 373.012C1342.83 385.004 1320.87 391 1295.05 391ZM1249.13 258.29H1338.17C1337.37 242.567 1332.98 230.842 1325 223.114C1317.28 215.386 1307.16 211.522 1294.65 211.522C1282.14 211.522 1271.76 215.652 1263.51 223.913C1255.52 231.908 1250.73 243.367 1249.13 258.29Z" fill="#585858"/>
<path d="M1532.9 391C1511.08 391 1492.04 386.47 1475.81 377.409C1459.83 368.082 1447.32 355.024 1438.27 338.236C1429.49 321.447 1425.1 301.727 1425.1 279.076C1425.1 256.425 1429.49 236.838 1438.27 220.316C1447.32 203.527 1459.83 190.469 1475.81 181.142C1491.78 171.815 1510.68 167.152 1532.5 167.152C1553.8 167.152 1572.3 171.815 1588 181.142C1603.71 190.469 1615.82 203.794 1624.34 221.115C1633.12 238.437 1637.52 259.089 1637.52 283.073V295.065H1486.99C1487.78 312.12 1492.31 324.778 1500.56 333.039C1509.08 341.3 1520.26 345.431 1534.1 345.431C1544.22 345.431 1552.6 343.299 1559.26 339.035C1566.18 334.771 1571.1 328.243 1574.03 319.448L1634.32 323.046C1628.73 344.365 1616.89 361.02 1598.79 373.012C1580.68 385.004 1558.72 391 1532.9 391ZM1486.99 258.29H1576.03C1575.23 242.567 1570.84 230.842 1562.85 223.114C1555.13 215.386 1545.02 211.522 1532.5 211.522C1519.99 211.522 1509.61 215.652 1501.36 223.913C1493.37 231.908 1488.58 243.367 1486.99 258.29Z" fill="#585858"/>
<path d="M1675.24 386.203C1675.24 361.953 1678.43 340.901 1684.82 323.046C1691.47 305.191 1702.12 289.202 1716.76 275.079C1731.67 260.955 1751.37 247.497 1775.86 234.706C1788.9 228.044 1799.15 222.181 1806.6 217.118C1814.32 211.788 1819.78 206.458 1822.97 201.129C1826.16 195.799 1827.76 189.537 1827.76 182.341C1827.76 175.413 1826.16 169.417 1822.97 164.354C1820.04 159.024 1815.65 154.893 1809.79 151.962C1803.94 148.764 1796.62 147.165 1787.83 147.165C1773.46 147.165 1762.01 151.429 1753.5 159.957C1745.24 168.218 1740.05 180.343 1737.92 196.332L1675.63 192.734C1678.3 162.621 1689.21 139.037 1708.38 121.982C1727.81 104.661 1754.03 96 1787.04 96C1808.86 96 1827.36 99.5976 1842.54 106.793C1857.97 113.988 1869.69 123.981 1877.67 136.772C1885.92 149.564 1890.05 164.487 1890.05 181.542C1890.05 196.465 1887.52 208.99 1882.46 219.117C1877.67 229.243 1869.82 238.57 1858.91 247.098C1847.99 255.625 1833.62 264.686 1815.78 274.279C1792.89 286.537 1775.99 297.863 1765.07 308.256C1754.16 318.383 1748.3 327.31 1747.51 335.038H1890.05V386.203H1675.24Z" fill="url(#paint18_linear_1018_26)"/>
<path d="M1942.48 386.203V102.396H2052.69C2087.82 102.396 2114.71 108.658 2133.34 121.183C2151.97 133.441 2161.29 152.895 2161.29 179.543C2161.29 191.269 2158.9 201.528 2154.1 210.322C2149.31 218.85 2142.26 225.645 2132.94 230.709C2123.89 235.772 2112.84 238.836 2099.8 239.902V239.103C2123.49 240.702 2141.59 247.631 2154.1 259.889C2166.88 271.881 2173.27 287.87 2173.27 307.856C2173.27 334.238 2163.95 353.958 2145.32 367.016C2126.95 379.808 2100.6 386.203 2066.26 386.203H1942.48ZM2003.18 336.637H2063.47C2078.11 336.637 2089.82 333.705 2098.6 327.843C2107.65 321.714 2112.18 312.653 2112.18 300.661C2112.18 288.669 2107.65 279.609 2098.6 273.48C2089.82 267.084 2078.11 263.886 2063.47 263.886H2003.18V336.637ZM2003.18 219.916H2051.09C2066 219.916 2077.84 216.985 2086.63 211.122C2095.68 205.259 2100.2 196.865 2100.2 185.939C2100.2 174.214 2095.81 165.686 2087.02 160.356C2078.51 154.76 2066.53 151.962 2051.09 151.962H2003.18V219.916Z" fill="#585858"/>
<path d="M2313.53 391C2291.71 391 2272.67 386.47 2256.44 377.409C2240.46 368.082 2227.95 355.024 2218.9 338.236C2210.12 321.447 2205.73 301.727 2205.73 279.076C2205.73 256.425 2210.12 236.838 2218.9 220.316C2227.95 203.527 2240.46 190.469 2256.44 181.142C2272.41 171.815 2291.31 167.152 2313.13 167.152C2334.43 167.152 2352.93 171.815 2368.63 181.142C2384.34 190.469 2396.45 203.794 2404.97 221.115C2413.75 238.437 2418.15 259.089 2418.15 283.073V295.065H2267.62C2268.41 312.12 2272.94 324.778 2281.19 333.039C2289.71 341.3 2300.89 345.431 2314.73 345.431C2324.85 345.431 2333.23 343.299 2339.89 339.035C2346.81 334.771 2351.73 328.243 2354.66 319.448L2414.95 323.046C2409.36 344.365 2397.52 361.02 2379.42 373.012C2361.31 385.004 2339.35 391 2313.53 391ZM2267.62 258.29H2356.66C2355.86 242.567 2351.47 230.842 2343.48 223.114C2335.76 215.386 2325.65 211.522 2313.13 211.522C2300.62 211.522 2290.24 215.652 2281.99 223.913C2274 231.908 2269.21 243.367 2267.62 258.29Z" fill="#585858"/>
<path d="M2551.39 391C2529.56 391 2510.53 386.47 2494.29 377.409C2478.32 368.082 2465.81 355.024 2456.76 338.236C2447.97 321.447 2443.58 301.727 2443.58 279.076C2443.58 256.425 2447.97 236.838 2456.76 220.316C2465.81 203.527 2478.32 190.469 2494.29 181.142C2510.26 171.815 2529.16 167.152 2550.99 167.152C2572.28 167.152 2590.78 171.815 2606.49 181.142C2622.19 190.469 2634.31 203.794 2642.82 221.115C2651.61 238.437 2656 259.089 2656 283.073V295.065H2505.47C2506.27 312.12 2510.79 324.778 2519.05 333.039C2527.56 341.3 2538.74 345.431 2552.59 345.431C2562.7 345.431 2571.09 343.299 2577.74 339.035C2584.66 334.771 2589.59 328.243 2592.51 319.448L2652.81 323.046C2647.22 344.365 2635.37 361.02 2617.27 373.012C2599.17 385.004 2577.21 391 2551.39 391ZM2505.47 258.29H2594.51C2593.71 242.567 2589.32 230.842 2581.33 223.114C2573.61 215.386 2563.5 211.522 2550.99 211.522C2538.48 211.522 2528.1 215.652 2519.84 223.913C2511.86 231.908 2507.07 243.367 2505.47 258.29Z" fill="#585858"/>
<defs>
<linearGradient id="paint0_linear_1018_26" x1="304.855" y1="44.0419" x2="304.855" y2="56.4602" gradientUnits="userSpaceOnUse">
<stop stop-color="#12B76A"/>
<stop offset="1" stop-color="#08512F"/>
</linearGradient>
<linearGradient id="paint1_linear_1018_26" x1="501.855" y1="44.0419" x2="501.855" y2="56.4602" gradientUnits="userSpaceOnUse">
<stop stop-color="#12B76A"/>
<stop offset="1" stop-color="#08512F"/>
</linearGradient>
<linearGradient id="paint2_linear_1018_26" x1="460.308" y1="44.0419" x2="460.308" y2="56.4602" gradientUnits="userSpaceOnUse">
<stop stop-color="#12B76A"/>
<stop offset="1" stop-color="#08512F"/>
</linearGradient>
<linearGradient id="paint3_linear_1018_26" x1="263.308" y1="44.0419" x2="263.308" y2="56.4602" gradientUnits="userSpaceOnUse">
<stop stop-color="#12B76A"/>
<stop offset="1" stop-color="#08512F"/>
</linearGradient>
<linearGradient id="paint4_linear_1018_26" x1="0" y1="242.694" x2="765" y2="242.694" gradientUnits="userSpaceOnUse">
<stop stop-color="#12B76A"/>
<stop offset="1" stop-color="#08512F" stop-opacity="0.92"/>
</linearGradient>
<linearGradient id="paint5_linear_1018_26" x1="382.5" y1="0" x2="382.5" y2="485.388" gradientUnits="userSpaceOnUse">
<stop offset="0.201923" stop-color="#F3F3F3"/>
<stop offset="1" stop-color="#434343"/>
</linearGradient>
<linearGradient id="paint6_linear_1018_26" x1="382.5" y1="0" x2="382.5" y2="485.388" gradientUnits="userSpaceOnUse">
<stop offset="0.2" stop-color="#989898"/>
<stop offset="1" stop-color="#434343" stop-opacity="0.92"/>
</linearGradient>
<linearGradient id="paint7_linear_1018_26" x1="0" y1="242.694" x2="765" y2="242.694" gradientUnits="userSpaceOnUse">
<stop stop-color="#12B76A"/>
<stop offset="1" stop-color="#08512F" stop-opacity="0.92"/>
</linearGradient>
<linearGradient id="paint8_linear_1018_26" x1="0" y1="242.694" x2="765" y2="242.694" gradientUnits="userSpaceOnUse">
<stop stop-color="#12B76A"/>
<stop offset="1" stop-color="#08512F" stop-opacity="0.92"/>
</linearGradient>
<linearGradient id="paint9_linear_1018_26" x1="382.5" y1="0" x2="382.5" y2="485.388" gradientUnits="userSpaceOnUse">
<stop offset="0.201923" stop-color="#22C35D"/>
<stop offset="1" stop-color="#105D2C"/>
</linearGradient>
<linearGradient id="paint10_linear_1018_26" x1="382.5" y1="0" x2="382.5" y2="485.388" gradientUnits="userSpaceOnUse">
<stop offset="0.201923" stop-color="#22C35D"/>
<stop offset="1" stop-color="#105D2C"/>
</linearGradient>
<linearGradient id="paint11_linear_1018_26" x1="0" y1="242.694" x2="765" y2="242.694" gradientUnits="userSpaceOnUse">
<stop stop-color="#12B76A"/>
<stop offset="1" stop-color="#08512F" stop-opacity="0.92"/>
</linearGradient>
<linearGradient id="paint12_linear_1018_26" x1="0" y1="242.694" x2="765" y2="242.694" gradientUnits="userSpaceOnUse">
<stop stop-color="#12B76A"/>
<stop offset="1" stop-color="#08512F" stop-opacity="0.92"/>
</linearGradient>
<linearGradient id="paint13_linear_1018_26" x1="382.5" y1="0" x2="382.5" y2="485.388" gradientUnits="userSpaceOnUse">
<stop offset="0.201923" stop-color="#22C35D"/>
<stop offset="1" stop-color="#105D2C"/>
</linearGradient>
<linearGradient id="paint14_linear_1018_26" x1="0" y1="242.694" x2="765" y2="242.694" gradientUnits="userSpaceOnUse">
<stop stop-color="#12B76A"/>
<stop offset="1" stop-color="#08512F" stop-opacity="0.92"/>
</linearGradient>
<linearGradient id="paint15_linear_1018_26" x1="0" y1="242.694" x2="765" y2="242.694" gradientUnits="userSpaceOnUse">
<stop stop-color="#12B76A"/>
<stop offset="1" stop-color="#08512F" stop-opacity="0.92"/>
</linearGradient>
<linearGradient id="paint16_linear_1018_26" x1="382.5" y1="0" x2="382.5" y2="485.388" gradientUnits="userSpaceOnUse">
<stop offset="0.2" stop-color="#989898"/>
<stop offset="1" stop-color="#434343" stop-opacity="0.92"/>
</linearGradient>
<linearGradient id="paint17_linear_1018_26" x1="382.5" y1="0" x2="382.5" y2="485.388" gradientUnits="userSpaceOnUse">
<stop offset="0.201923" stop-color="#F3F3F3"/>
<stop offset="1" stop-color="#434343"/>
</linearGradient>
<linearGradient id="paint18_linear_1018_26" x1="924" y1="243.5" x2="2656" y2="243.5" gradientUnits="userSpaceOnUse">
<stop offset="0.2" stop-color="#1EAC52"/>
<stop offset="1" stop-color="#08512F"/>
</linearGradient>
</defs>
</svg>
